<?xml version="1.0" encoding="utf-8"?>
<!-- Generator: Adobe Illustrator 16.0.0, SVG Export Plug-In . SVG Version: 6.00 Build 0)  -->
<!DOCTYPE svg PUBLIC "-//W3C//DTD SVG 1.1//EN" "http://www.w3.org/Graphics/SVG/1.1/DTD/svg11.dtd">
<svg version="1.1" id="图层_1" xmlns="http://www.w3.org/2000/svg" xmlns:xlink="http://www.w3.org/1999/xlink" x="0px" y="0px"
	 width="586.471px" height="171.43px" viewBox="0 0 586.471 171.43" enable-background="new 0 0 586.471 171.43"
	 xml:space="preserve">
<g>
	<g>
		<path fill="#FFFFFF" d="M331.48,11.674c-8.286,0-15.049,6.765-15.05,15.053c0,8.288,6.764,15.05,15.05,15.05
			c8.293,0,15.053-6.762,15.053-15.05S339.773,11.674,331.48,11.674z M331.48,39.541c-7.059,0-12.815-5.757-12.815-12.814
			c0-7.06,5.758-12.817,12.815-12.817c7.062,0,12.819,5.758,12.819,12.817C344.299,33.784,338.54,39.541,331.48,39.541z"/>
		<path fill="#FFFFFF" d="M339.117,36.544h-3.065l-2.9-5.917c-0.795-1.624-1.916-2.436-3.354-2.436h-2.241v8.353h-2.574V16.909
			h6.563c2.104,0,3.746,0.468,4.919,1.4c1.179,0.935,1.765,2.213,1.765,3.83c0,1.39-0.438,2.561-1.319,3.52
			c-0.877,0.958-2.066,1.594-3.572,1.901v0.056c0.829,0.272,1.582,1.046,2.254,2.328L339.117,36.544L339.117,36.544z M327.556,18.99
			v7.122h3.403c1.372,0,2.474-0.349,3.311-1.054c0.84-0.692,1.258-1.605,1.258-2.729c0-1.051-0.384-1.87-1.146-2.459
			c-0.771-0.588-1.87-0.88-3.299-0.88H327.556L327.556,18.99z"/>
	</g>
</g>
<path fill="#FFFFFF" d="M554.971,142.137v-1.604c1.251-0.715,2.313-2.489,2.671-4.626l0.706-3.381
	c-0.349-0.176-0.706-0.176-1.412-0.176c-0.714,0-1.251,0.176-1.965,0.352v-1.603c0.714-0.179,1.607-0.352,2.494-0.352
	c1.063,0,2.313,0.173,3.029,0.352l-1.073,6.056c-0.35,1.955-0.528,3.914-0.528,5.338h-1.786c0-0.713,0-1.781,0.178-3.024l0,0
	C556.578,140.711,555.855,141.602,554.971,142.137L554.971,142.137z M566.717,130.921l1.072,6.233
	c0.179,1.247,0.358,2.137,0.535,3.021l0,0c0.352-0.709,0.709-1.598,1.244-2.849l3.021-6.229h1.966l-4.273,8.546
	c-1.249,2.492-2.314,4.446-3.923,6.053c-1.244,1.247-2.666,1.782-3.38,1.957l-0.537-1.6c0.537-0.183,1.432-0.533,2.137-1.247
	c0.894-0.533,1.603-1.424,2.324-2.491c0-0.18,0-0.355,0-0.537l-2.324-10.858L566.717,130.921L566.717,130.921z M554.971,131.099
	v1.603c-1.952,1.068-3.381,3.385-3.381,5.877c0,1.239,0.534,2.49,1.958,2.49c0.537,0,0.893-0.173,1.423-0.536v1.604
	c-0.717,0.354-1.423,0.531-2.13,0.531c-1.969,0-3.209-1.601-3.209-3.735C549.632,135.548,551.59,132.168,554.971,131.099
	L554.971,131.099z M540.197,142.137v-1.427c1.244-0.711,2.318-2.133,2.667-3.915l0.714-4.095c-0.354-0.176-1.063-0.533-1.778-0.533
	c-0.535,0-1.063,0.183-1.603,0.357v-1.604c0.54-0.173,1.066-0.173,1.781-0.173c0.716,0,1.431,0.173,1.957,0.352l1.064-5.516h1.957
	l-2.664,13.165c-0.179,1.251-0.357,2.499-0.357,3.567h-1.778l0.181-2.142l0,0C541.799,141.069,541.085,141.78,540.197,142.137z
	 M540.197,130.921v1.604c-1.955,0.891-3.376,3.205-3.376,5.689c0,1.43,0.527,2.854,2.136,2.854c0.349,0,0.886-0.173,1.24-0.357
	v1.427c-0.535,0.354-1.24,0.531-1.955,0.531c-2.315,0-3.38-1.958-3.38-4.268C534.862,135.015,536.99,131.813,540.197,130.921
	L540.197,130.921z M503.712,142.493v-1.597c1.243,0,2.129-0.363,2.846-0.721l0.354,1.427
	C506.198,142.137,504.955,142.493,503.712,142.493L503.712,142.493z M503.712,137.155v-1.606c1.602-0.178,2.846-0.71,2.846-1.961
	l0,0c0-0.886-0.717-1.419-1.779-1.419c-0.356,0-0.716,0-1.065,0.183v-1.603c0.351,0,0.885-0.18,1.243-0.18
	c2.309,0,3.38,1.423,3.38,3.019C508.335,135.731,506.378,136.796,503.712,137.155L503.712,137.155z M511.716,142.317l1.429-7.302
	c0.171-1.6,0.351-3.023,0.528-4.095h1.787c-0.188,0.712-0.188,1.604-0.363,2.495l0,0c0.893-1.604,1.955-2.848,3.558-2.848
	c0.187,0,0.357,0.18,0.545,0.18l-0.358,1.953c-0.187-0.176-0.357-0.176-0.534-0.176c-1.602,0-3.209,2.137-3.739,4.802l-0.894,4.989
	L511.716,142.317L511.716,142.317z M524.713,130.921l1.066,6.055c0.355,1.427,0.355,2.315,0.534,3.024l0,0
	c0.359-0.709,0.715-1.422,1.244-2.673l3.029-6.406h1.96l-4.273,8.725c-1.245,2.492-2.317,4.446-3.919,6.053
	c-1.249,1.247-2.673,1.782-3.386,1.957l-0.35-1.781c0.35-0.176,1.241-0.529,1.957-1.064c0.895-0.533,1.601-1.601,2.311-2.671
	c0-0.177,0-0.357,0-0.535l-2.311-10.682L524.713,130.921L524.713,130.921z M503.712,130.749v1.603
	c-1.429,0.53-2.314,1.957-2.673,3.381c0.887,0,1.95,0,2.673-0.184v1.606c-0.894,0-1.956,0.173-3.029,0.173
	c0,0.362,0,1.422,0.356,2.141c0.357,1.064,1.244,1.429,2.495,1.429h0.178v1.597c-0.178,0-0.366,0-0.535,0
	c-3.022,0-4.453-1.96-4.453-4.632C498.724,134.838,500.683,131.459,503.712,130.749L503.712,130.749z M477.901,142.493v-1.597
	c1.244,0,2.13-0.363,2.846-0.721l0.178,1.427C480.218,141.961,479.146,142.317,477.901,142.493L477.901,142.493z M477.901,137.155
	v-1.606c1.603-0.178,2.665-0.886,2.665-1.961l0,0c0-1.062-0.706-1.419-1.779-1.419c-0.356,0-0.527,0-0.886,0v-1.42
	c0.357-0.18,0.707-0.18,1.244-0.18c2.137,0,3.388,1.244,3.388,3.019C482.532,135.731,480.566,136.796,477.901,137.155
	L477.901,137.155z M488.396,130.749l1.075,6.579c0,1.251,0.178,2.14,0.356,2.85l0,0c0.169-0.71,0.527-1.428,1.244-2.669l3.378-6.587
	h2.315l-6.41,11.396h-1.96l-1.955-11.568L488.396,130.749L488.396,130.749z M501.756,112.413c0,2.493,0,4.453,0.17,6.229h-3.736
	l-0.18-3.736l0,0c-1.072,1.96-3.56,4.268-7.653,4.268c-3.558,0-7.823-2.135-7.823-10.146l0.17-13.346h4.097v12.641
	c-0.18,4.443,1.244,7.293,4.979,7.469c2.854,0,4.813-1.957,5.524-3.917c0.181-0.53,0.356-1.241,0.356-2.131l0.173-13.885h4.095
	L501.756,112.413z M477.901,130.749v1.42c-1.429,0.533-2.314,2.14-2.851,3.563c1.063,0,1.958,0,2.851-0.184v1.606
	c-0.893,0-1.957,0-3.03,0c-0.178,0.535,0,1.595,0.181,2.137c0.535,1.068,1.422,1.604,2.672,1.604c0,0,0,0,0.179,0v1.597
	c-0.179,0-0.535,0-0.716,0c-3.021,0-4.273-2.133-4.273-4.632C472.911,134.838,474.87,131.459,477.901,130.749L477.901,130.749z
	 M467.219,118.819v-3.028c2.313-0.354,3.914-1.957,4.631-3.735c0-0.354,0.178-0.89,0.178-1.243v-3.922
	c-1.607-0.178-3.388,0-4.809,0.357v-3.021c1.421-0.181,3.021-0.357,4.631-0.181v-0.534c0.178-1.78-0.357-5.165-4.631-5.343v-3.019
	h0.178c7.117,0,8.719,4.802,8.719,9.427l-0.171,8.545c0,1.962,0.171,3.916,0.355,5.342h-3.744l-0.348-2.85h-0.182
	C471.133,117.039,469.355,118.286,467.219,118.819z M467.219,95.151v3.019c-0.181,0-0.358,0-0.536,0
	c-2.129,0-4.273,0.535-5.867,1.605l-0.894-2.67C461.7,95.858,464.365,95.151,467.219,95.151L467.219,95.151z M467.219,104.226v3.021
	c-2.854,0.535-4.98,1.779-4.98,4.626c0,2.854,1.772,4.098,3.907,4.098c0.358,0,0.715,0,1.073-0.181v3.028
	c-0.715,0.177-1.422,0.177-2.139,0.177c-4.631,0-6.944-3.381-6.944-6.583C458.136,107.964,461.346,105.111,467.219,104.226
	L467.219,104.226z M423.078,141.78v-1.42c1.066-0.894,2.309-2.499,2.666-4.813l0.714-3.38c-0.357-0.177-0.714-0.177-1.431-0.177
	c-0.706,0-1.423,0.177-1.949,0.534v-1.777c0.708-0.18,1.603-0.357,2.494-0.357c1.064,0,2.307,0.179,3.016,0.53l-1.236,5.875
	c-0.358,1.953-0.543,4.101-0.358,5.342h-1.965c0-0.717,0.18-1.777,0.358-3.027l0,0C424.681,140.533,423.786,141.249,423.078,141.78
	L423.078,141.78z M423.078,99.063v-4.095c2.494,0.356,4.272,2.137,5.158,4.452h0.183c0.703-1.252,1.6-2.315,2.491-3.031
	c1.423-0.89,2.845-1.421,5.157-1.421c3.021,0,7.477,1.959,7.477,9.964l-0.181,13.354h-4.093l0.177-12.995
	c0-4.449-1.6-6.943-4.979-6.943c-2.314,0-4.094,1.605-4.987,3.564c-0.178,0.711-0.356,1.419-0.356,2.135v14.239h-4.096v-13.708
	C425.206,102.089,424.498,100.127,423.078,99.063L423.078,99.063z M432.153,142.137l2.314-11.39h1.959l-2.314,11.39H432.153
	L432.153,142.137z M435.892,128.607c-0.716,0-1.244-0.528-1.064-1.241c0-0.891,0.529-1.429,1.241-1.429
	c0.716,0,1.243,0.538,1.243,1.248C437.312,128.079,436.598,128.607,435.892,128.607L435.892,128.607L435.892,128.607z
	 M439.985,142.137l1.601-8.012c0.18-1.425,0.356-2.493,0.536-3.378h1.781l-0.358,2.313l0,0c1.063-1.785,2.673-2.67,4.273-2.491
	c1.421,0,2.843,0.706,2.843,3.019c0,0.539,0,1.251-0.171,1.961l-1.251,6.59h-1.957l1.241-6.59c0-0.353,0.181-0.886,0.181-1.422
	c0-1.245-0.527-1.958-1.778-1.958c-1.422,0-3.381,1.603-3.917,4.453l-1.065,5.517L439.985,142.137L439.985,142.137z
	 M455.114,140.176c0.535,0.356,1.43,0.721,2.313,0.721c1.423,0,2.31-0.896,2.31-1.786c0-0.895-0.531-1.42-1.602-2.135
	c-1.412-0.714-2.128-1.779-2.128-3.025c0-1.958,1.777-3.381,4.272-3.381c0.886,0,1.777,0.18,2.307,0.53l-0.528,1.427
	c-0.357-0.176-1.063-0.534-1.967-0.534c-1.241,0-2.127,0.71-2.127,1.778c0,0.893,0.537,1.245,1.6,1.961
	c1.251,0.713,2.137,1.597,2.137,3.019c0,2.319-1.964,3.743-4.449,3.743c-1.243,0-2.316-0.354-2.846-0.891L455.114,140.176
	L455.114,140.176z M451.91,118.819c-1.6,0-2.85-1.245-2.85-2.849c0-1.774,1.25-3.026,2.85-3.026c1.78,0,2.847,1.252,2.847,3.026
	C454.757,117.574,453.513,118.996,451.91,118.819L451.91,118.819z M423.078,94.969v4.095c-0.725-0.535-1.607-0.895-2.671-0.895
	c-2.495,0-4.455,2.142-5.16,4.099c-0.179,0.711-0.365,1.422-0.365,2.134l-0.171,13.706h-3.916v-16.73c0-2.313,0-4.271-0.179-6.051
	h3.736l0.179,3.56h0.18c1.241-2.138,3.38-4.096,7.116-4.096C422.186,94.79,422.721,94.79,423.078,94.969L423.078,94.969z
	 M423.078,130.749v1.777c-1.966,0.891-3.381,3.205-3.381,5.689c0,1.251,0.352,2.495,1.95,2.495c0.357,0,0.896-0.179,1.431-0.352
	v1.42c-0.725,0.357-1.431,0.537-2.137,0.537c-2.137,0-3.381-1.605-3.381-3.738C417.562,135.371,419.514,131.992,423.078,130.749
	L423.078,130.749z M408.303,146.586v-1.954c0.712-0.54,1.42-1.608,1.776-3.211l0.357-1.775l0,0
	c-0.715,0.888-1.423,1.604-2.135,1.957v-1.426c1.241-0.71,2.313-2.315,2.672-4.091l0.704-3.735
	c-0.354-0.183-1.063-0.358-1.956-0.358c-0.358,0-0.885,0-1.42,0.177v-1.6c0.535-0.179,1.241-0.179,1.955-0.179
	c1.244,0,2.665,0.357,3.56,0.885l-1.779,9.437c-0.358,2.313-1.063,4.098-2.314,4.986
	C409.364,146.055,408.838,146.408,408.303,146.586z M408.303,130.569v1.6c-1.96,0.893-3.381,3.202-3.381,5.521
	c0,1.42,0.528,2.843,2.313,2.843c0.358,0,0.708-0.173,1.066-0.355v1.426c-0.54,0.358-1.251,0.535-1.96,0.535
	c-2.313,0-3.38-1.961-3.38-4.095C402.963,134.838,404.922,131.459,408.303,130.569L408.303,130.569z M408.303,144.632v1.954
	c-0.897,0.358-1.781,0.358-2.497,0.358c-1.423,0-2.664-0.358-3.378-0.716l0.535-1.598c0.525,0.532,1.778,0.711,3.021,0.711
	C406.879,145.344,407.595,145.165,408.303,144.632L408.303,144.632z M394.415,142.137v-6.59l0.18-0.886
	c0.179-1.424,0.358-3.029,0.536-4.094h1.601c0,0.891-0.179,1.6-0.179,2.491l0,0c0.708-1.428,1.959-2.67,3.558-2.67
	c0.182,0,0.357,0,0.538,0l-0.356,1.96c-0.182,0-0.358,0-0.528,0c-1.787,0-3.21,1.957-3.746,4.625l-0.886,5.162L394.415,142.137
	L394.415,142.137z M394.415,118.464v-3.026c3.918,0,6.769-3.736,6.769-8.896c0.18-3.919-1.778-8.726-6.769-8.726l0,0V94.61h0.18
	c6.589,0,11.041,4.812,11.041,11.754C405.45,114.906,399.763,118.464,394.415,118.464z M394.415,94.61v3.206
	c-4.81,0-6.944,4.451-6.944,8.726c0,4.978,2.681,8.896,6.767,8.896l0,0c0,0,0,0,0.179,0v3.026c-0.179,0-0.179,0-0.355,0l0,0
	c-4.632,0-8.547-2.674-10.14-7.121v-9.075C385.513,97.463,389.606,94.79,394.415,94.61L394.415,94.61z M394.415,135.548v6.59
	l-1.243-0.177L394.415,135.548L394.415,135.548z M383.92,141.78v-1.604c1.233-0.709,2.308-2.485,2.665-4.628l0.714-3.557
	c-0.355,0-0.714-0.179-1.42-0.179c-0.726,0-1.253,0.179-1.959,0.537v-1.603c0.706-0.357,1.593-0.357,2.494-0.357
	c1.057,0,2.308,0.179,3.014,0.357l-1.057,6.048c-0.366,1.953-0.542,3.915-0.542,5.165h-1.781c0-0.54,0-1.785,0.18-2.852l0,0
	C385.513,140.36,384.806,141.249,383.92,141.78z M369.141,125.937c0.358,0,0.709,0,1.064,0c1.607,0,2.851,0.357,3.737,1.07
	c0.714,0.713,1.073,1.6,1.073,2.492c0,2.133-1.602,3.561-3.381,4.087l0,0c1.42,0.362,2.664,1.608,2.664,3.567
	c0,1.595-0.885,2.846-1.956,3.741c-0.886,0.524-1.959,0.884-3.203,1.064v-1.602c1.603-0.359,3.021-1.427,3.021-3.385
	c0-1.779-1.421-2.49-3.021-2.668v-1.427c2.138-0.18,3.915-1.248,3.915-3.2c0-1.427-1.242-2.143-2.851-2.143
	c-0.535,0-0.887,0-1.064,0L369.141,125.937L369.141,125.937z M383.92,102.267v9.074c-0.547-1.421-0.716-3.021-0.716-4.63
	C383.204,105.111,383.555,103.511,383.92,102.267L383.92,102.267z M383.92,130.749v1.603c-1.967,1.065-3.388,3.381-3.388,5.865
	c0,1.252,0.534,2.495,1.956,2.495c0.536,0,0.885-0.179,1.432-0.534v1.604c-0.716,0.357-1.432,0.537-2.146,0.537
	c-1.949,0-3.2-1.605-3.2-3.738C378.573,135.196,380.532,131.813,383.92,130.749L383.92,130.749z M369.141,117.574v-4.451
	c1.244,1.248,3.203,1.962,5.338,1.962c2.315,0,3.917-0.541,4.987-1.07l0.716,3.024c-1.081,0.535-3.388,1.426-6.589,1.426
	C371.993,118.464,370.385,118.107,369.141,117.574L369.141,117.574z M369.141,99.953v-4.271c1.603-0.713,3.38-1.249,5.518-1.249
	c2.495,0.178,4.632,0.719,5.875,1.426l-1.066,3.026c-0.894-0.538-2.492-1.068-4.809-1.068
	C372.344,97.816,370.385,98.528,369.141,99.953z M366.827,126.295c0.715-0.177,1.421-0.177,2.313-0.357v1.602
	c-0.356,0-0.535,0.183-0.714,0.183l-0.885,5.16h1.422c0,0,0,0,0.177,0v1.427c-0.177,0-0.177,0-0.356,0h-1.6l-1.065,6.053
	c0.351,0.173,1.065,0.173,1.602,0.173c0.358,0,0.886,0,1.421-0.173v1.602c-0.714,0.177-1.251,0.177-1.956,0.177
	c-1.422,0-2.675-0.177-3.38-0.357L366.827,126.295L366.827,126.295z M369.141,95.681v4.271c-1.778,1.603-2.484,3.916-2.672,6.589
	c0,2.664,1.073,4.978,2.672,6.581v4.451c-4.272-1.604-6.759-5.7-6.759-11.032C362.382,101.554,364.867,97.463,369.141,95.681
	L369.141,95.681z M355.97,118.286c-1.604,0-2.849-1.247-2.849-3.021c0-1.61,1.243-2.853,2.849-2.853
	c1.781,0,2.845,1.241,2.845,2.853C358.814,117.039,357.571,118.286,355.97,118.286L355.97,118.286z"/>
<g>
	<path fill="#FFFFFF" stroke="#FFFFFF" d="M69.554,157.365c0,2.809,2.321,5.132,5.305,5.132c2.804,0,5.288-2.323,5.288-5.132
		c0-2.981-2.484-5.298-5.288-5.298C71.875,152.067,69.554,154.383,69.554,157.365z"/>
	<g>
		<line fill="#FFFFFF" stroke="#FFFFFF" stroke-width="0.8" x1="59.247" y1="110.632" x2="121.187" y2="110.632"/>
	</g>
	<g>
		<line fill="#FFFFFF" stroke="#FFFFFF" stroke-width="0.8" x1="62.093" y1="119.531" x2="118.343" y2="119.531"/>
	</g>
	<g>
		<line fill="#FFFFFF" stroke="#FFFFFF" stroke-width="0.8" x1="64.227" y1="127.72" x2="114.955" y2="127.72"/>
	</g>
	<g>
		<line fill="#FFFFFF" stroke="#FFFFFF" stroke-width="0.8" x1="67.259" y1="135.731" x2="112.112" y2="135.731"/>
	</g>
	<g>
		<g>
			<line fill="#FFFFFF" stroke="#FFFFFF" stroke-width="1.8" x1="70.458" y1="143.913" x2="109.27" y2="143.913"/>
		</g>
		<g>
			
				<line fill="#FFFFFF" stroke="#FFFFFF" stroke-width="1.8" stroke-linecap="round" x1="54.438" y1="98.528" x2="70.458" y2="143.913"/>
		</g>
		<g>
			
				<line fill="#FFFFFF" stroke="#FFFFFF" stroke-width="1.8" stroke-linecap="round" x1="121.008" y1="111.342" x2="109.617" y2="143.913"/>
		</g>
		<g>
			
				<line fill="#FFFFFF" stroke="#FFFFFF" stroke-width="1.8" stroke-linecap="round" x1="31.656" y1="98.705" x2="54.258" y2="98.705"/>
		</g>
	</g>
	<g>
		<line fill="#FFFFFF" stroke="#FFFFFF" stroke-width="0.8" x1="71.701" y1="110.595" x2="71.701" y2="142.855"/>
	</g>
	<g>
		<line fill="#FFFFFF" stroke="#FFFFFF" stroke-width="0.8" x1="89.681" y1="110.595" x2="89.681" y2="142.855"/>
	</g>
	<g>
		<line fill="#FFFFFF" stroke="#FFFFFF" stroke-width="0.8" x1="99.12" y1="110.595" x2="99.12" y2="142.474"/>
	</g>
	<g>
		<line fill="#FFFFFF" stroke="#FFFFFF" stroke-width="0.8" x1="80.428" y1="110.595" x2="80.428" y2="142.855"/>
	</g>
	<g>
		<line fill="#FFFFFF" stroke="#FFFFFF" stroke-width="0.8" x1="107.31" y1="110.595" x2="107.31" y2="142.474"/>
	</g>
	<g>
		<line fill="#FFFFFF" stroke="#FFFFFF" stroke-width="0.8" x1="115.313" y1="110.595" x2="115.313" y2="126.72"/>
	</g>
	<path fill="#FFFFFF" stroke="#FFFFFF" stroke-width="1.0001" d="M98.755,157.365c0,2.809,2.321,5.132,5.294,5.132
		c2.817,0,5.13-2.323,5.13-5.132c0-2.981-2.313-5.298-5.13-5.298C101.076,152.067,98.755,154.383,98.755,157.365z"/>
</g>
<path fill="#FFFFFF" d="M327.846,143.208v-8.9c4.451-1.068,6.232-3.56,5.159-6.77c-0.886-2.312-3.201-3.559-5.159-4.271v-10.502
	c3.916,1.248,9.61,3.205,11.746,5.162c3.032,2.848,5.875,8.01,4.982,13.348C343.508,136.444,337.278,142.137,327.846,143.208
	L327.846,143.208z M327.846,101.912v-1.07c2.137-2.494,4.632-4.805,7.115-6.767c2.853,0.357,5.168,0.895,5.706,1.962l-2.495,8.189
	c0,0-6.41-2.672-9.967-2.314C328.023,101.912,328.023,101.912,327.846,101.912L327.846,101.912z M327.846,94.432
	c0.359-0.357,0.715-0.716,1.063-0.887c-0.35,0-0.704-0.178-1.063-0.178V94.432z M327.846,93.369v1.063
	c-6.938,6.408-12.284,14.063-15.128,22.248c-0.715-0.354-1.249-1.065-1.966-1.597c-4.623-5.163-1.95-12.816,1.069-15.663
	c3.032-2.852,5.877-5.347,13.003-5.875C325.351,93.369,326.416,93.369,327.846,93.369L327.846,93.369z M327.846,100.841
	c-0.35,0.357-0.716,0.714-1.063,1.07c0.349,0,0.715,0,1.063,0V100.841L327.846,100.841z M327.846,112.765
	c-1.78-0.354-3.211-0.711-3.737-0.893c-1.069-0.173-2.137-0.89-3.029-1.777c-1.778,3.026-3.202,6.229-4.087,9.436
	c3.56,1.782,7.116,2.495,8.011,2.844c0.536,0.357,1.593,0.541,2.844,0.894L327.846,112.765L327.846,112.765z M327.846,134.307v8.9
	c-0.181,0-0.181,0-0.35,0c-5.704,0.535-9.082,0.178-11.221-0.186c-0.893-3.205-1.251-6.579-1.422-9.784
	c2.844,0.888,6.938,1.957,10.496,1.6C326.236,134.663,327.13,134.485,327.846,134.307L327.846,134.307z M290.645,144.45v-0.537
	c0,0.18,0.179,0.362,0.179,0.537H290.645L290.645,144.45z M290.645,135.731v-0.535c4.272-1.069,7.653-2.314,7.653-2.314l3.029,8.016
	c0,0-2.138,1.241-5.701,2.313C294.201,140.533,292.423,138.043,290.645,135.731L290.645,135.731z M290.645,122.732V98.346
	c0.895,0.357,1.603,0.891,2.495,1.248c10.494,6.411,8.727,22.605,8.727,22.605L290.645,122.732L290.645,122.732z M310.752,141.421
	c-0.886-0.524-1.78-0.889-1.78-0.889l1.072-3.558C310.224,138.402,310.401,139.818,310.752,141.421z M278.182,115.084l11.928-0.714
	c0,0-0.536-9.611-9.612-10.324c-0.704,0-1.422,0-2.314,0v-8.188c4.095-0.177,8.367,0.531,12.463,2.488v24.386l-12.286,0.894
	c0,0,0-0.177-0.177-0.177L278.182,115.084L278.182,115.084z M290.645,135.196v0.535c-0.18-0.184-0.18-0.36-0.357-0.36
	C290.465,135.371,290.465,135.196,290.645,135.196L290.645,135.196z M290.645,143.913v0.537c-2.137,0.531-4.632,0.895-7.474,1.072
	c-1.787,0-3.379,0-4.989-0.179v-9.082c1.958,0.534,4.632,0.359,7.296,0C287.444,138.75,289.034,141.249,290.645,143.913z
	 M266.084,115.791l12.098-0.706v8.364c-6.409-4.807-13.875-8.723-22.073-11.575c1.429-4.271,3.736-8.185,6.947-10.497
	c4.264-3.207,9.609-5.16,15.126-5.519v8.188C271.422,104.401,267.147,109.027,266.084,115.791L266.084,115.791z M278.182,136.261
	c0,0-0.179,0-0.179-0.176c-4.979-1.248-10.505-4.095-11.392-11.749l4.99-0.356c-4.813-3.205-10.507-6.053-16.381-8.189
	c-1.063,5.7-0.356,11.931,2.314,16.561c4.624,8.183,11.749,12.458,20.646,12.993L278.182,136.261L278.182,136.261z M236.885,147.302
	v-35.961c2.675,0.358,5.167,0.895,7.841,1.424l2.486,34.18L236.885,147.302L236.885,147.302z M236.885,107.602V90.876
	c1.789-2.142,3.561-4.271,5.525-6.055l1.948,23.851C241.872,108.137,239.379,107.783,236.885,107.602L236.885,107.602z
	 M236.885,84.11v-6.052l4.987-0.173l0.18,1.6C240.272,80.901,238.493,82.506,236.885,84.11z M236.885,78.058v6.052
	c-1.957,2.137-3.914,4.452-5.695,6.767l-0.886-12.463L236.885,78.058L236.885,78.058z M236.885,90.876
	c-1.957,2.492-3.559,5.16-4.979,7.828l0.527,8.366c1.609,0.177,3.03,0.36,4.452,0.531V90.876L236.885,90.876z M236.885,111.342
	v35.961H236c-0.18-0.182-0.356-0.538-0.356-0.717l-2.853-35.603C234.22,111.166,235.644,111.166,236.885,111.342L236.885,111.342z
	 M200.756,149.796v-7.835c0.886-0.182,1.959-0.54,2.845-0.893c7.474-3.025,6.946-8.009,6.77-15.132c0,0-2.678,0-8.021,0.538
	c-0.528,0-1.057,0.175-1.594,0.175v-7.654c4.811-0.889,8.538-1.241,8.538-1.241s-0.357-1.253-0.535-2.67
	c0-0.541-0.178-1.604-1.066-2.672c3.738-0.712,7.654-1.247,11.57-1.429c1.253,2.496,1.609,4.631,1.609,5.518
	c0,2.317,1.959,22.077,1.777,24.031c0,2.137,1.244,7.479,1.244,7.479l-10.685,0.354l-0.887-4.273
	C212.324,144.092,209.474,148.011,200.756,149.796L200.756,149.796z M200.756,109.027v-8.187c2.316,0,4.811,0.183,7.118,0.714
	c4.093,0.889,7.114,3.022,9.082,5.692c-4.989,0.354-9.609,1.248-14.241,2.316C202.178,109.381,201.464,109.206,200.756,109.027z
	 M200.756,100.841v8.187c0,0,0,0-0.178,0c-6.939-1.425-17.086,4.275-17.086,4.275l-3.566-7.479
	C179.926,105.824,189.902,100.841,200.756,100.841L200.756,100.841z M200.756,118.996v7.654c-4.987,0.889-10.503,4.099-9.617,9.437
	c0.714,4.982,4.987,6.77,9.617,5.875v7.835c-0.714,0.174-1.598,0.174-2.493,0.35c-10.675,1.426-16.021-4.271-17.621-7.477
	c-1.6-3.378-3.21-9.431,2.492-16.374C186.515,122.375,194.526,120.244,200.756,118.996L200.756,118.996z M163.199,151.571v-12.104
	c2.313-3.205,4.979-6.229,8-9.076c1.968,2.849,3.211,6.765,2.503,10.506C172.987,144.981,169.072,149.256,163.199,151.571
	L163.199,151.571z M163.199,132.35c1.6-1.781,3.198-3.563,4.979-5.165c-1.063-0.891-3.022-1.778-4.979-2.493V132.35L163.199,132.35z
	 M163.199,112.589v-8.899c3.029,0.356,6.05,0.889,6.757,2.135l-2.664,8.189C167.292,114.013,165.334,113.123,163.199,112.589z
	 M163.199,103.689v8.899c-1.961-0.534-4.097-1.07-5.697-1.07c-3.565,0.354-7.297,1.07-8.368,4.097
	c-1.241,3.204,1.957,5.522,4.097,6.053c1.43,0.177,5.873,1.423,9.97,3.024v7.658c-0.897,0.889-1.78,1.775-2.496,2.846
	c-2.136-1.957-5.338-2.494-6.409-3.027c-1.423-0.535-9.611-2.137-14.235-7.3c-4.629-5.16-2.137-12.813,1.065-15.663
	c3.029-2.842,5.703-5.337,12.813-6.048C155.007,103.158,159.279,103.158,163.199,103.689L163.199,103.689z M163.199,139.467v12.104
	c-1.961,0.716-4.097,1.064-6.412,1.422c-0.18,0-0.355,0-0.355,0C157.859,148.192,160.167,143.744,163.199,139.467L163.199,139.467z
	 M151.271,153.175c-5.516,0-7.651-0.889-8.896-1.246c-1.608-0.357-4.104-1.605-4.104-1.605l2.674-8.721
	c0,0,7.298,3.741,13.716,2.848l0,0C153.23,147.302,152.157,150.145,151.271,153.175z"/>
<path fill="#FFFFFF" d="M239.917,20.209l15.305-0.889l21.716,36.848l12.286-38.984l15.842-1.067c0,0-10.863,29.011-17.086,44.677
	c-4.988,0.535-9.798,1.43-14.421,2.667c-1.251,0-2.495,0-3.735,0c-1.241,0-2.324,0-3.562,0L239.917,21.81V20.209L239.917,20.209z
	 M239.917,73.433V66.31l1.063,7.123H239.917L239.917,73.433z M285.836,65.953c0,0.18,0,0.18,0,0.18
	c-5.519,12.994-12.455,21.004-17.624,24.031c-5.338,3.024-13.884,5.694-13.884,5.694l-4.443-9.789c0,0,11.211-3.913,15.664-8.899
	c4.272-5.169,4.444-7.829,4.444-7.829l-0.352-0.535c1.603-0.72,3.201-1.071,4.982-1.604
	C278.358,67.022,282.098,66.667,285.836,65.953z M239.02,20.209h0.897v1.602L239.02,20.209L239.02,20.209z M239.917,66.31v7.123
	l-22.075,1.601v-9.971l21.895-1.242L239.917,66.31L239.917,66.31z M217.842,46.552V21.456l17.086-1.066l0.894,7.83l-16.735,19.405
	C218.734,47.264,218.199,46.906,217.842,46.552z M217.842,21.456v25.097c-2.854-2.138-5.336-4.453-7.473-6.942l6.938-8.01
	l-12.635,0.714c-1.957-3.025-3.56-6.41-4.811-9.79L217.842,21.456L217.842,21.456z M217.842,65.063l-14.241,0.89l12.82-15.127
	c-3.39-2.313-6.41-4.984-9.074-7.833l-22.969,26.52l0.715,7.656l32.749-2.136V65.063L217.842,65.063z M136.851,80.552V68.622
	c3.388,2.853,9.255,2.853,14.421,1.247c7.115-2.312,8.367-8.012,8.367-8.012l-0.535-9.257c0,0-3.381,0.184-9.791,0.894
	c1.959-3.027,3.38-6.229,4.624-9.433c2.138-0.357,3.389-0.54,3.389-0.54s-0.357-1.422-0.537-3.019c0-0.537-0.355-1.43-1.064-2.314
	c0.886-3.384,1.244-6.942,1.244-10.5c0-0.715,0-1.251,0-1.784c11.033,2.668,15.125,13.348,15.125,15.839
	c0,2.672,2.854,24.567,2.854,26.879c0,2.315,1.777,8.365,1.777,8.365l-13.17,0.717l-1.252-4.81c0,0-4.092,5.341-17.263,7.299
	C142.009,80.727,139.345,80.727,136.851,80.552L136.851,80.552z M136.851,58.3c1.603-1.426,3.566-2.49,5.693-3.205
	c2.315-3.201,4.283-6.583,5.883-10.144c-3.566,0.532-7.66,1.422-11.576,2.673V58.3L136.851,58.3z M136.851,34.983
	c3.208-0.894,6.589-1.247,9.619-0.894c1.957,0.361,3.551,0.715,4.802,1.25c0.535-2.494,0.715-5.162,0.715-7.651
	c0-0.892,0-1.784,0-2.673c-3.209-0.358-6.409-0.18-9.441,0.179c-1.777,1.604-3.549,3.378-5.693,4.805L136.851,34.983L136.851,34.983
	z M182.241,23.589l0.893,9.793l16.201-0.714c-1.968-3.201-3.39-6.411-4.632-9.791L182.241,23.589z M136.851,29.999v4.984
	c-2.495,0.532-4.979,1.426-6.938,2.314v-2.314C132.408,33.382,134.721,31.778,136.851,29.999L136.851,29.999z M136.851,47.625V58.3
	c-1.602,1.427-2.672,3.38-2.495,5.697c-1.421,1.245-2.842,2.493-4.441,3.562v-17.27C132.049,49.225,134.355,48.332,136.851,47.625
	L136.851,47.625z M136.851,68.623v11.931c-2.672-0.358-4.979-1.067-6.938-1.964v-5.867c2.306-1.428,4.441-3.029,6.408-4.637
	C136.492,68.269,136.671,68.446,136.851,68.623L136.851,68.623z M129.913,29.999v-2.311c1.42-0.358,2.851-0.715,4.441-1.251
	C132.935,27.688,131.514,28.751,129.913,29.999z M129.913,27.688v2.311c-2.316,1.602-4.812,3.022-7.476,4.452l-1.778-3.205
	C120.659,31.246,124.216,29.467,129.913,27.688L129.913,27.688z M129.913,34.983v2.314c-2.854,1.247-4.633,2.133-4.633,2.133
	l-0.886-1.422C126.348,37.119,128.134,36.052,129.913,34.983L129.913,34.983z M129.913,50.289v17.27
	c-2.316,1.781-4.633,3.38-7.126,4.801c-2.128-3.736-4.979-10.321,1.787-18.153C125.815,52.785,127.597,51.359,129.913,50.289
	L129.913,50.289z M129.913,72.721v5.867c-1.779-0.885-3.39-1.955-4.453-3.02C126.891,74.67,128.49,73.786,129.913,72.721
	L129.913,72.721z M51.943,86.069V83.22c2.673,0.89,5.167,1.427,7.83,1.953C57.468,85.532,54.796,85.886,51.943,86.069L51.943,86.069
	z M51.943,79.126v-3.201c8.549-0.179,16.198-3.565,16.198-3.565l3.738,9.081c0,0-1.064,0.538-3.201,1.246
	C62.985,81.978,57.289,80.901,51.943,79.126L51.943,79.126z M51.943,39.431v-9.074c2.854,0,5.524,0.174,8.011,0.714
	c7.84,1.243,7.124,1.775,7.124,1.775l-2.852,9.438c0,0-3.734-1.247-8.896-1.779C54.258,40.146,53.016,39.79,51.943,39.431
	L51.943,39.431z M90.216,29.289l1.074,7.476c0,0,4.801-7.297,11.211-8.723c6.579-1.604,10.505-0.711,10.505-0.711l0.706,11.034l0,0
	c-0.358,0-10.505-1.245-14.769,3.557c-0.182,0.362-0.358,0.54-0.717,0.894c-5.338,0.891-11.041,1.426-16.735,1.426
	c-0.708,0-1.412,0-2.138,0l-0.525-4.451l-1.603-9.791L90.216,29.289L90.216,29.289z M95.374,47.088
	c-0.886,2.316-0.886,4.807-0.355,9.786c0.895,7.658,2.315,21.896,2.493,24.744c-1.421,0.36-3.022,0.538-4.622,0.713l-9.97,0.711
	l-3.207-34.889c0.535,0,1.07,0,1.778,0C86.123,48.153,90.932,47.795,95.374,47.088z M51.943,30.357v9.074
	c-5.34-1.778-10.497-4.273-15.12-6.941C41.983,30.889,47.319,30.357,51.943,30.357L51.943,30.357z M51.943,75.925
	c-0.18,0-0.527,0.177-0.886,0.177c-8.728,0-17.802-3.38-20.643-12.28c-2.854-9.084,0.348-17.269,10.316-21.721
	c1.251-0.528,2.493-0.89,3.736-1.242c-4.444-1.783-8.896-4.094-12.813-6.768c-0.536,0.183-0.894,0.54-1.423,0.715
	c-8.008,3.56-13.348,11.036-15.135,18.333c7.832,11.753,21.002,21.004,36.845,25.989v-3.203H51.943z M51.943,83.22v2.849
	c-3.906,0.178-8.181,0-12.634-0.896c-18.338-3.195-23.853-16.189-24.737-25.096C23.467,70.584,36.646,78.769,51.943,83.22z"/>
</svg>
